HIERARCHY
ROOT hip
{
  OFFSET -0.00509931 96.4334 -1.50866
  CHANNELS 6 Xposition Yposition Zposition Zrotation Xrotation Yrotation
  JOINT abdomen
  {
    OFFSET 0 7.2397 0
    CHANNELS 6 Xposition Yposition Zposition Zrotation Xrotation Yrotation
    JOINT chest
    {
      OFFSET 0 16.546 0
      CHANNELS 6 Xposition Yposition Zposition Zrotation Xrotation Yrotation
      JOINT neck
      {
        OFFSET 0 34.2149 0
        CHANNELS 6 Xposition Yposition Zposition Zrotation Xrotation Yrotation
        JOINT head
        {
          OFFSET 0 6.2923 0
          CHANNELS 6 Xposition Yposition Zposition Zrotation Xrotation Yrotation
          End Site
          {
            OFFSET 0 21.2161 0
          }
        }
      }
      JOINT lCollar
      {
        OFFSET 4.0639 26.6115 -1.1234
        CHANNELS 6 Xposition Yposition Zposition Zrotation Xrotation Yrotation
        JOINT lShldr
        {
          OFFSET 14.1772 0 0
          CHANNELS 6 Xposition Yposition Zposition Zrotation Xrotation Yrotation
          JOINT lForeArm
          {
            OFFSET 26.1234 0 0
            CHANNELS 6 Xposition Yposition Zposition Zrotation Xrotation Yrotation
            JOINT lHand
            {
              OFFSET 27.7188 0 0
              CHANNELS 6 Xposition Yposition Zposition Zrotation Xrotation Yrotation
              JOINT lThumb1
              {
                OFFSET 2.2979 -0.4685 1.8313
                CHANNELS 6 Xposition Yposition Zposition Zrotation Xrotation Yrotation
                JOINT lThumb2
                {
                  OFFSET 5.2953 0 0
                  CHANNELS 6 Xposition Yposition Zposition Zrotation Xrotation Yrotation
                  JOINT lThumb3
                  {
                    OFFSET 3.0181 0 0
                    CHANNELS 6 Xposition Yposition Zposition Zrotation Xrotation Yrotation
                    End Site
                    {
                      OFFSET 2.6294 0 0
                    }
                  }
                }
              }
              JOINT lIndex1
              {
                OFFSET 9.3793 0.2991 2.5924
                CHANNELS 6 Xposition Yposition Zposition Zrotation Xrotation Yrotation
                JOINT lIndex2
                {
                  OFFSET 4.3461 0 0
                  CHANNELS 6 Xposition Yposition Zposition Zrotation Xrotation Yrotation
                  JOINT lIndex3
                  {
                    OFFSET 2.1666 0 0
                    CHANNELS 6 Xposition Yposition Zposition Zrotation Xrotation Yrotation
                    End Site
                    {
                      OFFSET 2.2048 0 0
                    }
                  }
                }
              }
              JOINT lMid1
              {
                OFFSET 9.4769 0.8376 0.2947
                CHANNELS 6 Xposition Yposition Zposition Zrotation Xrotation Yrotation
                JOINT lMid2
                {
                  OFFSET 4.772 0 0
                  CHANNELS 6 Xposition Yposition Zposition Zrotation Xrotation Yrotation
                  JOINT lMid3
                  {
                    OFFSET 2.8722 0 0
                    CHANNELS 6 Xposition Yposition Zposition Zrotation Xrotation Yrotation
                    End Site
                    {
                      OFFSET 2.0959 0 0
                    }
                  }
                }
              }
              JOINT lRing1
              {
                OFFSET 8.6586 1.0176 -1.7016
                CHANNELS 6 Xposition Yposition Zposition Zrotation Xrotation Yrotation
                JOINT lRing2
                {
                  OFFSET 4.5461 0 0
                  CHANNELS 6 Xposition Yposition Zposition Zrotation Xrotation Yrotation
                  JOINT lRing3
                  {
                    OFFSET 2.506 0 0
                    CHANNELS 6 Xposition Yposition Zposition Zrotation Xrotation Yrotation
                    End Site
                    {
                      OFFSET 2.2023 0 0
                    }
                  }
                }
              }
              JOINT lPinky1
              {
                OFFSET 7.6901 0.6618 -3.9096
                CHANNELS 6 Xposition Yposition Zposition Zrotation Xrotation Yrotation
                JOINT lPinky2
                {
                  OFFSET 3.2119 0 0
                  CHANNELS 6 Xposition Yposition Zposition Zrotation Xrotation Yrotation
                  JOINT lPinky3
                  {
                    OFFSET 1.924 0 0
                    CHANNELS 6 Xposition Yposition Zposition Zrotation Xrotation Yrotation
                    End Site
                    {
                      OFFSET 1.7829 0 0
                    }
                  }
                }
              }
            }
          }
        }
      }
      JOINT rCollar
      {
        OFFSET -4.0677 26.6109 -1.1234
        CHANNELS 6 Xposition Yposition Zposition Zrotation Xrotation Yrotation
        JOINT rShldr
        {
          OFFSET -14.1772 0 0
          CHANNELS 6 Xposition Yposition Zposition Zrotation Xrotation Yrotation
          JOINT rForeArm
          {
            OFFSET -26.1234 0 0
            CHANNELS 6 Xposition Yposition Zposition Zrotation Xrotation Yrotation
            JOINT rHand
            {
              OFFSET -27.7188 0 0
              CHANNELS 6 Xposition Yposition Zposition Zrotation Xrotation Yrotation
              JOINT rThumb1
              {
                OFFSET -2.2979 -0.4684 1.8313
                CHANNELS 6 Xposition Yposition Zposition Zrotation Xrotation Yrotation
                JOINT rThumb2
                {
                  OFFSET -5.2953 0 0
                  CHANNELS 6 Xposition Yposition Zposition Zrotation Xrotation Yrotation
                  JOINT rThumb3
                  {
                    OFFSET -3.0181 0 0
                    CHANNELS 6 Xposition Yposition Zposition Zrotation Xrotation Yrotation
                    End Site
                    {
                      OFFSET -2.6294 0 0
                    }
                  }
                }
              }
              JOINT rIndex1
              {
                OFFSET -9.3793 0.2991 2.5924
                CHANNELS 6 Xposition Yposition Zposition Zrotation Xrotation Yrotation
                JOINT rIndex2
                {
                  OFFSET -4.3461 0 0
                  CHANNELS 6 Xposition Yposition Zposition Zrotation Xrotation Yrotation
                  JOINT rIndex3
                  {
                    OFFSET -2.1666 0 0
                    CHANNELS 6 Xposition Yposition Zposition Zrotation Xrotation Yrotation
                    End Site
                    {
                      OFFSET -2.2048 0 0
                    }
                  }
                }
              }
              JOINT rMid1
              {
                OFFSET -9.4769 0.8376 0.2947
                CHANNELS 6 Xposition Yposition Zposition Zrotation Xrotation Yrotation
                JOINT rMid2
                {
                  OFFSET -4.772 0 0
                  CHANNELS 6 Xposition Yposition Zposition Zrotation Xrotation Yrotation
                  JOINT rMid3
                  {
                    OFFSET -2.8722 0 0
                    CHANNELS 6 Xposition Yposition Zposition Zrotation Xrotation Yrotation
                    End Site
                    {
                      OFFSET -2.0959 0 0
                    }
                  }
                }
              }
              JOINT rRing1
              {
                OFFSET -8.6586 1.0176 -1.7016
                CHANNELS 6 Xposition Yposition Zposition Zrotation Xrotation Yrotation
                JOINT rRing2
                {
                  OFFSET -4.5461 0 0
                  CHANNELS 6 Xposition Yposition Zposition Zrotation Xrotation Yrotation
                  JOINT rRing3
                  {
                    OFFSET -2.506 0 0
                    CHANNELS 6 Xposition Yposition Zposition Zrotation Xrotation Yrotation
                    End Site
                    {
                      OFFSET -2.2023 0 0
                    }
                  }
                }
              }
              JOINT rPinky1
              {
                OFFSET -7.6901 0.6618 -3.9096
                CHANNELS 6 Xposition Yposition Zposition Zrotation Xrotation Yrotation
                JOINT rPinky2
                {
                  OFFSET -3.2119 0 0
                  CHANNELS 6 Xposition Yposition Zposition Zrotation Xrotation Yrotation
                  JOINT rPinky3
                  {
                    OFFSET -1.924 0 0
                    CHANNELS 6 Xposition Yposition Zposition Zrotation Xrotation Yrotation
                    End Site
                    {
                      OFFSET -1.7829 0 0
                    }
                  }
                }
              }
            }
          }
        }
      }
    }
  }
  JOINT lThigh
  {
    OFFSET 8.7379 -0.0029 0.0005
    CHANNELS 6 Xposition Yposition Zposition Zrotation Xrotation Yrotation
    JOINT lShin
    {
      OFFSET 0 -46.6676 0
      CHANNELS 6 Xposition Yposition Zposition Zrotation Xrotation Yrotation
      JOINT lFoot
      {
        OFFSET 0 -40.1476 0
        CHANNELS 6 Xposition Yposition Zposition Zrotation Xrotation Yrotation
        JOINT lToes
        {
          OFFSET 0 -8.8846 14.2294
          CHANNELS 6 Xposition Yposition Zposition Zrotation Xrotation Yrotation
          End Site
          {
            OFFSET 0 0 6.296
          }
        }
      }
    }
  }
  JOINT rThigh
  {
    OFFSET -8.7379 0.0029 -0.0005
    CHANNELS 6 Xposition Yposition Zposition Zrotation Xrotation Yrotation
    JOINT rShin
    {
      OFFSET 0 -46.6676 0
      CHANNELS 6 Xposition Yposition Zposition Zrotation Xrotation Yrotation
      JOINT rFoot
      {
        OFFSET 0 -40.1476 0
        CHANNELS 6 Xposition Yposition Zposition Zrotation Xrotation Yrotation
        JOINT rToes
        {
          OFFSET 0 -8.8846 14.2294
          CHANNELS 6 Xposition Yposition Zposition Zrotation Xrotation Yrotation
          End Site
          {
            OFFSET 0 0 6.296
          }
        }
      }
    }
  }
}
MOTION
Frames:	4
Frame Time:	0.0333333
-7.75028 96.9931 5.56622 0.42178 -8.35286 3.17881 0 7.2397 0 -0.647251 0.0351299 -1.58457 0 16.546 -3.55271e-15 -1.30412 1.94864 -3.08742 0 34.2149 0 3.71325 25.8941 -0.88607 2.22045e-16 6.2923 0 0.408396 -22.228 -14.572 4.0639 26.6115 -1.1234 2.3544 -2.88802 2.50692 14.1772 0 0 -84.5532 19.5138 22.1523 26.1234 0 7.10543e-15 -0.41935 0.109004 -29.1402 27.7188 -3.55271e-15 3.55271e-15 -1.02551 -28.751 10.7304 2.2979 -0.4685 1.8313 52.5441 86.3788 -64.3777 5.2953 0 -1.33227e-15 -13.655 2.43916 4.23127 3.0181 0 1.77636e-15 38.5402 5.09864 3.63093 9.3793 0.2991 2.5924 -18.8181 -2.4889 4.85346 4.3461 0 0 -21.0373 -0.5185 4.27995 2.1666 7.10543e-15 -1.33227e-15 -23.2013 -0.934112 4.14837 9.4769 0.8376 0.2947 -17.8905 -5.21729 5.05299 4.772 -1.77636e-15 4.44089e-16 -42.309 -3.81107 10.0592 2.8722 7.10543e-15 1.77636e-15 -30.8765 -1.99604 9.02094 8.6586 1.0176 -1.7016 -26.3252 0.724141 6.2546 4.5461 3.55271e-15 -3.33067e-16 -47.0093 -2.51836 5.78632 2.506 0 8.88178e-16 -34.3176 -1.32166 5.3857 7.6901 0.6618 -3.9096 -23.7545 -10.3957 6.176 3.2119 3.55271e-15 0 -45.7793 -6.11833 14.4285 1.924 0 -3.55271e-15 -35.3986 -3.65905 13.1471 -4.0677 26.6109 -1.1234 9.17916 -2.84051 0.158654 -14.1772 0 3.55271e-15 74.4517 4.59564 -13.2695 -26.1234 7.10543e-15 0 0.25346 0.0381507 17.1192 -27.7188 7.10543e-15 0 -16.3577 -7.81557 0.798071 -2.2979 -0.4684 1.8313 -80.7334 75.7767 111.058 -5.2953 0 0 15.3004 2.21205 -5.46139 -3.0181 -3.55271e-15 0 -10.6114 3.2941 -16.0189 -9.3793 0.2991 2.5924 58.8722 -7.07581 -8.6488 -4.3461 1.42109e-14 0 78.8288 -8.3887 -10.5305 -2.1666 1.42109e-14 0 81.0281 -8.82224 -9.93212 -9.4769 0.8376 0.2947 58.4456 -9.84027 -8.71158 -4.772 -3.55271e-15 0 77.7398 -10.7396 -13.4126 -2.8722 0 8.88178e-16 73.8658 -9.75406 -14.4177 -8.6586 1.0176 -1.7016 59.4604 -3.212 -8.59604 -4.5461 -3.55271e-15 -1.77636e-15 79.8423 -5.51923 -6.59367 -2.506 1.42109e-14 0 73.1039 -4.70674 -7.195 -7.6901 0.6618 -3.9096 57.724 -14.4056 -8.86325 -3.2119 -3.55271e-15 -8.88178e-16 75.4266 -14.2018 -18.3035 -1.924 0 1.77636e-15 71.1307 -12.7786 -19.3061 8.7379 -0.0029 0.0005 5.33521 7.10196 20.0307 0 -46.6676 0 3.67267 12.6811 -8.47118 1.77636e-15 -40.1476 4.44089e-16 -2.82318 -7.91384 4.85881 0 -8.8846 14.2294 0.0001 0 3.18055e-15 -8.7379 0.0029 -0.0005 -2.9802 6.26992 -20.4005 0 -46.6676 -1.77636e-15 1.61815 14.1532 1.08437 -3.55271e-15 -40.1476 -4.44089e-16 1.68102 -11.1752 -6.89622 -1.77636e-15 -8.8846 14.2294 4.22417e-16 0 6.36111e-15 
-7.68067 96.9968 5.57299 0.485641 -8.34448 3.40093 0 7.2397 0 -0.611713 0.0317011 -1.58329 0 16.546 3.55271e-15 -1.23296 1.94088 -3.08982 -1.77636e-15 34.2149 1.77636e-15 3.7263 25.8976 -0.885722 2.22045e-16 6.2923 0 0.455272 -22.2352 -14.5441 4.0639 26.6115 -1.1234 2.36763 -2.88707 2.53193 14.1772 -2.84217e-14 -7.10543e-15 -84.6445 19.4314 22.195 26.1234 -7.10543e-15 0 -0.414561 0.106353 -28.7757 27.7188 -7.10543e-15 0 -1.1672 -28.7019 10.5116 2.2979 -0.4685 1.8313 55.6614 86.1173 -67.4455 5.2953 0 1.55431e-15 -13.655 2.43916 4.2313 3.0181 1.33227e-15 0 38.5402 5.09865 3.63093 9.3793 0.2991 2.5924 -18.7618 -2.48413 4.84415 4.3461 -3.55271e-15 0 -20.9809 -0.514287 4.26898 2.1666 0 -4.44089e-16 -23.145 -0.929594 4.13782 9.4769 0.8376 0.2947 -17.8652 -5.21519 5.04873 4.772 3.55271e-15 0 -42.2834 -3.80653 10.0542 2.8722 7.10543e-15 0 -30.8685 -1.99497 9.01915 8.6586 1.0176 -1.7016 -26.309 0.725846 6.25231 4.5461 0 0 -46.9924 -2.51665 5.78472 2.506 1.42109e-14 0 -34.3194 -1.3218 5.38591 7.6901 0.6618 -3.9096 -23.8198 -10.4023 6.18667 3.2119 7.10543e-15 1.77636e-15 -45.8422 -6.13443 14.4442 1.924 0 0 -35.4498 -3.66956 13.1619 -4.0677 26.6109 -1.1234 9.20355 -2.84552 0.147072 -14.1772 0 0 74.2876 4.60843 -12.9928 -26.1234 0 0 0.247156 0.0362319 16.6789 -27.7188 0 0 -16.2601 -7.70405 1.08755 -2.2979 -0.4684 1.8313 -80.7334 75.7767 111.058 -5.2953 -7.10543e-15 7.10543e-15 15.3004 2.21205 -5.46139 -3.0181 0 0 -10.6114 3.2941 -16.0189 -9.3793 0.2991 2.5924 58.8722 -7.07581 -8.6488 -4.3461 -3.55271e-15 3.55271e-15 78.8288 -8.3887 -10.5305 -2.1666 0 1.77636e-15 81.0281 -8.82224 -9.93212 -9.4769 0.8376 0.2947 58.4456 -9.84027 -8.71158 -4.772 0 0 77.7398 -10.7396 -13.4126 -2.8722 0 -8.88178e-16 73.8658 -9.75406 -14.4177 -8.6586 1.0176 -1.7016 59.4604 -3.212 -8.59604 -4.5461 0 3.55271e-15 79.8423 -5.51923 -6.59367 -2.506 -1.42109e-14 0 73.1039 -4.70674 -7.195 -7.6901 0.6618 -3.9096 57.724 -14.4056 -8.86325 -3.2119 7.10543e-15 -8.88178e-16 75.4266 -14.2018 -18.3035 -1.924 0 0 71.1307 -12.7786 -19.3061 8.7379 -0.0029 0.0005 5.2516 7.03497 20.1183 0 -46.6676 3.55271e-15 3.76204 12.7121 -8.79455 0 -40.1476 0 -2.76401 -7.90552 4.85466 0 -8.8846 14.2294 0.0001 0 -0 -8.7379 0.0029 -0.0005 -3.0656 6.27952 -20.2949 0 -46.6676 -1.77636e-15 1.65067 14.1925 0.809488 0 -40.1476 -8.88178e-16 1.82769 -11.1677 -6.8964 0 -8.8846 14.2294 2.48481e-16 9.93923e-17 3.18055e-15 
-7.60817 96.998 5.55994 0.540767 -8.29867 3.59845 -8.88178e-16 7.2397 0 -0.576661 0.029255 -1.58235 -1.77636e-15 16.546 3.55271e-15 -1.16436 1.9351 -3.09227 -1.77636e-15 34.2149 0 3.73785 25.899 -0.884816 4.44089e-16 6.2923 0 0.515998 -22.2496 -14.5413 4.0639 26.6115 -1.1234 2.38376 -2.88654 2.56116 14.1772 2.84217e-14 -3.55271e-15 -84.7367 19.3638 22.1774 26.1234 0 0 -0.409974 0.103844 -28.428 27.7188 -3.55271e-15 -1.77636e-15 -1.4045 -28.6892 10.2447 2.2979 -0.4685 1.8313 58.4957 85.8365 -70.2395 5.2953 0 -3.77476e-15 -13.655 2.43916 4.23128 3.0181 0 -1.77636e-15 38.5402 5.09864 3.63093 9.3793 0.2991 2.5924 -18.6762 -2.4769 4.83 4.3461 3.55271e-15 0 -20.8953 -0.507905 4.25231 2.1666 -7.10543e-15 -1.33227e-15 -23.0593 -0.922752 4.12178 9.4769 0.8376 0.2947 -17.8249 -5.21186 5.04194 4.772 0 0 -42.2429 -3.79937 10.0463 2.8722 7.10543e-15 1.77636e-15 -30.8385 -1.99097 9.01245 8.6586 1.0176 -1.7016 -26.2779 0.729101 6.24776 4.5461 0 -2.22045e-16 -46.9605 -2.51342 5.78171 2.506 1.42109e-14 8.88178e-16 -34.3003 -1.32031 5.38373 7.6901 0.6618 -3.9096 -23.8752 -10.4079 6.19571 3.2119 -3.55271e-15 8.88178e-16 -45.8956 -6.14811 14.4575 1.924 0 3.55271e-15 -35.4994 -3.67975 13.1762 -4.0677 26.6109 -1.1234 9.21724 -2.84957 0.110637 -14.1772 0 -3.55271e-15 74.1333 4.63221 -12.6752 -26.1234 7.10543e-15 0 0.240233 0.0341939 16.2013 -27.7188 7.10543e-15 -7.10543e-15 -16.1998 -7.59014 1.27227 -2.2979 -0.4684 1.8313 -80.7334 75.7767 111.058 -5.2953 0 3.55271e-15 15.3004 2.21205 -5.46139 -3.0181 0 -7.10543e-15 -10.6114 3.2941 -16.0189 -9.3793 0.2991 2.5924 58.8722 -7.07581 -8.6488 -4.3461 0 0 78.8288 -8.3887 -10.5305 -2.1666 0 8.88178e-16 81.0281 -8.82224 -9.93212 -9.4769 0.8376 0.2947 58.4456 -9.84027 -8.71158 -4.772 0 0 77.7398 -10.7396 -13.4126 -2.8722 1.42109e-14 8.88178e-16 73.8658 -9.75406 -14.4177 -8.6586 1.0176 -1.7016 59.4604 -3.212 -8.59604 -4.5461 3.55271e-15 -1.77636e-15 79.8423 -5.51923 -6.59367 -2.506 0 0 73.1039 -4.70674 -7.195 -7.6901 0.6618 -3.9096 57.724 -14.4056 -8.86325 -3.2119 -7.10543e-15 -8.88178e-16 75.4266 -14.2018 -18.3035 -1.924 -1.42109e-14 0 71.1307 -12.7786 -19.3061 8.7379 -0.0029 0.0005 5.16807 6.91519 20.198 -8.88178e-16 -46.6676 0 3.84886 12.7662 -9.07788 1.77636e-15 -40.1476 1.33227e-15 -2.69826 -7.92285 4.85222 0 -8.8846 14.2294 0.0001 0 -3.18055e-15 -8.7379 0.0029 -0.0005 -3.15292 6.23188 -20.1829 3.55271e-15 -46.6676 -3.55271e-15 1.67716 14.2379 0.545576 0 -40.1476 -4.44089e-16 1.97655 -11.1694 -6.89693 0 -8.8846 14.2294 -7.45443e-17 4.96962e-17 -0 
-7.54125 96.9968 5.52919 0.587762 -8.23264 3.77574 1.77636e-15 7.2397 0 -0.541268 0.0289705 -1.58096 0 16.546 3.55271e-15 -1.09599 1.93363 -3.0935 0 34.2149 1.77636e-15 3.7493 25.8986 -0.883628 7.77156e-16 6.2923 7.10543e-15 0.604296 -22.256 -14.5211 4.0639 26.6115 -1.1234 2.3776 -2.88789 2.57995 14.1772 0 -3.55271e-15 -84.799 19.3426 22.1324 26.1234 0 7.10543e-15 -0.406593 0.102021 -28.1702 27.7188 -3.55271e-15 0 -1.60729 -28.7228 10.0586 2.2979 -0.4685 1.8313 61.0753 85.5384 -72.7891 5.2953 -3.55271e-15 3.77476e-15 -13.655 2.43916 4.23131 3.0181 0 8.88178e-16 38.5402 5.09863 3.6309 9.3793 0.2991 2.5924 -18.558 -2.46694 4.81043 4.3461 3.55271e-15 0 -20.7769 -0.499127 4.22924 2.1666 0 4.44089e-16 -22.941 -0.913336 4.09959 9.4769 0.8376 0.2947 -17.7676 -5.20713 5.03227 4.772 1.77636e-15 4.44089e-16 -42.1855 -3.78923 10.0351 2.8722 0 0 -30.7831 -1.98359 9.00007 8.6586 1.0176 -1.7016 -26.2297 0.734138 6.24062 4.5461 0 2.22045e-16 -46.9114 -2.50846 5.77707 2.506 1.42109e-14 -8.88178e-16 -34.2568 -1.31692 5.37876 7.6901 0.6618 -3.9096 -23.9178 -10.4122 6.20265 3.2119 -7.10543e-15 0 -45.9366 -6.15861 14.4678 1.924 1.42109e-14 3.55271e-15 -35.544 -3.68894 13.1891 -4.0677 26.6109 -1.1234 9.23715 -2.85718 0.0854498 -14.1772 -2.84217e-14 3.55271e-15 73.9944 4.6696 -12.3468 -26.1234 0 0 0.232792 0.0320676 15.6867 -27.7188 -7.10543e-15 -3.55271e-15 -16.1492 -7.47283 1.44484 -2.2979 -0.4684 1.8313 -80.7334 75.7767 111.058 -5.2953 0 3.55271e-15 15.3004 2.21205 -5.46139 -3.0181 0 0 -10.6114 3.2941 -16.0189 -9.3793 0.2991 2.5924 58.8722 -7.07581 -8.6488 -4.3461 0 0 78.8288 -8.3887 -10.5305 -2.1666 -1.42109e-14 8.88178e-16 81.0281 -8.82224 -9.93212 -9.4769 0.8376 0.2947 58.4456 -9.84027 -8.71158 -4.772 3.55271e-15 1.77636e-15 77.7398 -10.7396 -13.4126 -2.8722 -1.42109e-14 8.88178e-16 73.8658 -9.75406 -14.4177 -8.6586 1.0176 -1.7016 59.4604 -3.212 -8.59604 -4.5461 -1.06581e-14 0 79.8423 -5.51923 -6.59367 -2.506 0 0 73.1039 -4.70674 -7.195 -7.6901 0.6618 -3.9096 57.724 -14.4056 -8.86325 -3.2119 0 -8.88178e-16 75.4266 -14.2018 -18.3035 -1.924 0 1.77636e-15 71.1307 -12.7786 -19.3061 8.7379 -0.0029 0.0005 5.10027 6.76182 20.2764 -1.77636e-15 -46.6676 0 3.91996 12.8432 -9.35175 -1.77636e-15 -40.1476 1.77636e-15 -2.62336 -7.96067 4.85172 1.77636e-15 -8.8846 14.2294 0.0001 -3.97569e-16 3.18055e-15 -8.7379 0.0029 -0.0005 -3.22798 6.14431 -20.0638 -3.55271e-15 -46.6676 3.55271e-15 1.70054 14.2952 0.282446 0 -40.1476 -8.88178e-16 2.12292 -11.1841 -6.89813 0 -8.8846 14.2294 -2.73329e-16 -1.98785e-16 -3.18055e-15 
